<?xml version="1.0" encoding="utf-8"?>
<!-- Generator: Adobe Illustrator 16.0.0, SVG Export Plug-In . SVG Version: 6.00 Build 0)  -->
<!DOCTYPE svg PUBLIC "-//W3C//DTD SVG 1.1//EN" "http://www.w3.org/Graphics/SVG/1.1/DTD/svg11.dtd">
<svg version="1.1" id="Layer_1" xmlns="http://www.w3.org/2000/svg" xmlns:xlink="http://www.w3.org/1999/xlink" x="0px" y="0px"
	 width="300px" height="300px" viewBox="0 0 300 300" enable-background="new 0 0 300 300" xml:space="preserve">
<circle stroke="#000000" stroke-miterlimit="10" cx="153.428" cy="152.26" r="31.943"/>
<g>
	<g>
		<path fill="#FFFFFF" d="M136.355,163.44c0.231-4.398-0.116-8.785-0.172-13.186c-0.034-2.615,0.241-5.187,0.811-7.739
			c1.063-4.759,1.918,1.952,2.015,3.417c0.485,7.345,0.708,16.089,3.735,22.918c0.583,1.315,2.565,3.741,4.338,3.064
			c2.912-1.111,3.555-3.766,4.221-6.614c1.096-4.684,0.641-9.743,0.477-14.497c-0.162-4.659-1.125-10.642,0.908-14.957
			c-0.863,0-1.727,0-2.59,0c3.672,6.142,2.991,14.646,4.777,21.533c0.633,2.444,2.977,8.378,6.33,5.2
			c2.805-2.656,2.156-9.851,2.239-13.27c0.049-2.016,0.122-4.044,0.116-6.06c-0.011-3.517-1.211-8.83,1.148-11.825
			c-0.785-0.101-1.57-0.202-2.355-0.304c3.009,5.557,2.285,13.691,3.706,19.871c1.026,4.468,0.688,11.659,4.953,14.479
			c1.619,1.07,3.12-1.528,1.515-2.59c-2.16-1.429-2.03-5.251-2.426-7.507c-0.609-3.479-1.59-6.887-2.236-10.361
			c-0.969-5.192-0.331-10.622-2.922-15.406c-0.423-0.781-1.76-1.061-2.355-0.304c-3.051,3.874-2.163,9.339-2.027,13.946
			c0.113,3.887-0.092,7.883-0.387,11.754c-0.064,0.838-0.852,5.342-1.063,5.062c-1.638-2.152-1.929-5.818-2.454-8.399
			c-1.178-5.783-0.848-12.117-3.969-17.335c-0.537-0.899-2.094-1.053-2.59,0c-2.18,4.626-1.424,9.758-1.367,14.725
			c0.041,3.562,0.26,7.107,0.182,10.671c-0.047,2.173-0.392,4.303-0.886,6.414c-0.897,0.397-1.795,0.796-2.692,1.193
			c-0.47-1.024-0.832-2.084-1.085-3.18c-1.583-5.784-1.681-12.279-2.24-18.224c-0.306-3.248,0.018-8.77-3.839-10.093
			c-0.479-0.164-1.122,0.013-1.459,0.386c-6.071,6.713-2.93,19.119-3.355,27.215C133.253,165.375,136.254,165.365,136.355,163.44
			L136.355,163.44z"/>
	</g>
</g>
</svg>
